<?xml version="1.0" standalone="no"?>
<!DOCTYPE svg PUBLIC "-//W3C//DTD SVG 20010904//EN" "http://www.w3.org/TR/2001/REC-SVG-20010904/DTD/svg10.dtd">
<svg version="1.0" xmlns="http://www.w3.org/2000/svg"
    width="512.000000pt" height="512.000000pt" viewBox="0 0 512.000000 512.000000"
    preserveAspectRatio="xMidYMid meet">

    <g transform="translate(0.000000,512.000000) scale(0.100000,-0.100000)"
        fill="#000000" stroke="none">
        <path
            d="M2415 3914 c-277 -40 -452 -98 -665 -219 -267 -150 -482 -354 -572
-539 -46 -97 -50 -135 -5 -51 188 348 589 640 1035 753 99 25 122 27 302 26
185 0 201 -2 311 -31 67 -18 167 -55 235 -87 85 -40 110 -49 89 -31 -69 58
-248 130 -397 159 -78 16 -279 28 -333 20z" />
        <path
            d="M2503 3779 c-171 -16 -340 -82 -434 -170 -30 -28 -49 -49 -44 -47 6
2 66 31 135 65 173 86 377 141 534 144 l61 2 -50 7 c-60 10 -95 10 -202 -1z" />
        <path
            d="M3847 3644 c-61 -75 -170 -174 -192 -174 -9 0 -38 -21 -65 -46 -38
-35 -54 -44 -70 -39 -32 10 -63 -17 -116 -101 -116 -186 -148 -355 -73 -382
17 -7 10 -23 -77 -177 -53 -94 -122 -215 -154 -270 -33 -55 -61 -113 -64 -129
-3 -16 -7 -30 -9 -32 -2 -3 -60 24 -129 59 -131 66 -265 151 -333 210 l-40 35
-62 -58 c-156 -146 -438 -287 -1114 -559 -123 -49 -243 -95 -266 -103 -24 -7
-43 -16 -43 -20 0 -7 -228 -84 -319 -108 -23 -6 -41 -13 -39 -16 3 -2 76 -24
164 -48 600 -165 1557 -462 1910 -594 l82 -30 183 105 c663 378 1002 593 1139
722 l65 61 -40 -14 c-65 -23 -119 -27 -222 -15 -140 15 -303 60 -445 122 -136
60 -244 119 -241 133 1 5 42 81 90 169 120 215 243 438 409 744 131 243 138
257 141 319 2 36 10 91 18 122 19 75 19 94 -2 112 -35 31 -62 32 -86 2z m43
-24 c0 -6 -11 -32 -25 -58 -16 -30 -21 -50 -15 -56 12 -12 13 -11 39 48 12 27
23 47 25 45 3 -2 -5 -43 -17 -91 l-22 -87 -30 19 c-17 11 -48 25 -70 31 l-40
10 70 74 c69 73 85 85 85 65z m-85 -189 c22 -10 48 -28 59 -39 18 -21 18 -22
-1 -59 -48 -93 -190 -356 -300 -553 -66 -118 -145 -262 -176 -320 -31 -58 -61
-111 -65 -118 -7 -10 -21 -5 -61 22 -29 20 -70 41 -92 47 -21 7 -39 13 -39 15
0 2 15 29 34 61 18 32 102 184 186 338 189 347 296 539 328 588 29 43 62 48
127 18z m-189 -36 c-9 -14 -23 -36 -32 -50 -16 -24 -34 -33 -34 -17 0 10 69
92 77 92 3 0 -2 -11 -11 -25z m-93 -52 c4 -3 -3 -11 -14 -17 -27 -14 -149
-255 -157 -308 -3 -28 0 -44 12 -57 19 -21 8 -35 -18 -25 -25 10 -30 68 -11
126 22 67 85 192 124 246 29 40 49 51 64 35z m27 -64 c0 -12 -137 -260 -152
-274 -24 -23 5 66 57 173 43 87 60 112 75 112 11 0 20 -5 20 -11z m-885 -831
c50 -33 147 -89 218 -124 70 -35 127 -66 127 -69 0 -3 -14 -33 -31 -67 -19
-38 -33 -82 -35 -113 -6 -87 -21 -178 -37 -222 l-15 -43 146 0 c109 0 143 3
135 11 -7 7 -60 14 -120 18 l-108 6 67 50 c36 28 80 58 97 67 18 10 39 31 49
49 9 17 32 55 51 85 30 50 35 54 50 40 32 -29 287 -146 396 -181 118 -39 306
-75 387 -75 44 0 49 -2 38 -15 -18 -22 -293 -204 -485 -321 -242 -147 -748
-434 -766 -434 -9 0 -110 34 -225 76 -115 41 -281 98 -369 125 -88 28 -203 64
-255 80 -52 17 -178 54 -280 84 -102 29 -302 88 -445 130 -143 43 -305 90
-359 104 l-99 27 140 47 140 47 314 -154 c173 -84 364 -176 424 -203 115 -52
243 -98 251 -91 2 3 -49 30 -113 61 -462 218 -565 268 -697 334 l-148 74 293
118 c648 261 886 379 1059 524 l65 55 25 -20 c14 -10 66 -46 115 -80z m498
-65 c18 -9 55 -32 84 -51 l52 -34 -20 -39 c-10 -22 -22 -39 -25 -39 -3 0 -16
13 -30 29 -14 17 -51 42 -82 57 -31 15 -58 29 -60 30 -7 5 29 64 39 64 5 0 24
-7 42 -17z m-20 -110 c16 -8 27 -17 25 -21 -18 -38 -79 -152 -82 -152 -5 0
-80 32 -85 36 -2 1 14 39 34 84 41 87 41 87 108 53z m-95 -197 c77 -39 81 -49
30 -86 -59 -44 -66 -45 -91 -21 -21 19 -22 25 -13 76 6 30 14 55 18 55 5 0 30
-11 56 -24z m-78 -176 c-18 -11 -24 -6 -16 16 5 14 9 15 19 5 9 -9 9 -14 -3
-21z" />
        <path
            d="M3795 3296 c-28 -47 -45 -64 -24 -23 7 14 8 18 1 12 -6 -6 -27 -43
-47 -83 -19 -40 -97 -181 -173 -315 -200 -348 -277 -496 -264 -509 11 -11 9
-14 157 257 54 99 151 273 216 387 134 235 172 308 166 315 -3 2 -17 -16 -32
-41z" />
        <path
            d="M3322 2563 c-28 -42 -92 -150 -92 -157 0 -3 6 -6 13 -6 7 0 34 43 60
95 48 96 54 117 19 68z" />
        <path
            d="M1935 2090 c114 -55 881 -337 891 -328 7 8 -173 84 -371 158 -186 70
-562 201 -574 199 -3 0 21 -14 54 -29z" />
        <path
            d="M2390 2080 c0 -21 102 -77 245 -132 134 -53 148 -56 105 -23 -85 64
-350 182 -350 155z" />
        <path
            d="M1988 1945 c31 -14 370 -125 422 -139 18 -5 21 -4 10 3 -19 12 -437
151 -453 151 -6 -1 3 -7 21 -15z" />
        <path
            d="M3201 2318 c2 -2 16 -14 32 -27 20 -18 27 -21 27 -9 0 8 -11 20 -25
26 -22 10 -46 17 -34 10z" />
        <path
            d="M2133 3392 c-52 -42 -215 -157 -405 -285 -32 -21 -58 -40 -58 -42 0
-7 82 25 139 54 159 81 310 192 362 267 17 25 29 47 27 50 -3 2 -32 -18 -65
-44z" />
        <path
            d="M1820 2909 c-108 -44 -322 -61 -435 -35 -78 19 -83 12 -9 -11 115
-34 336 -15 464 40 39 17 20 22 -20 6z" />
    </g>
</svg>